<?xml version="1.0" standalone="no"?>
<!DOCTYPE svg PUBLIC "-//W3C//DTD SVG 1.1//EN" "http://www.w3.org/Graphics/SVG/1.1/DTD/svg11.dtd" >
<svg xmlns="http://www.w3.org/2000/svg">
<metadata></metadata>
<defs>
<font id="artemiussans_sn_light_ttRg" horiz-adv-x="1130" >
<font-face units-per-em="2048" ascent="1638" descent="-410" />
<missing-glyph horiz-adv-x="512" />
<glyph horiz-adv-x="2048" />
<glyph horiz-adv-x="2048" />
<glyph unicode="&#xd;" horiz-adv-x="512" />
<glyph unicode=" "  horiz-adv-x="512" />
<glyph unicode="&#x09;" horiz-adv-x="512" />
<glyph unicode="&#xa0;" horiz-adv-x="512" />
<glyph unicode="!" horiz-adv-x="405" d="M82 102q0 -49 36 -84.5t85 -35.5t85 35.5t36 84.5t-36 85t-85 36t-85 -35.5t-36 -85.5zM133 1546l19 -1100h102l22 1100h-143z" />
<glyph unicode="&#x22;" horiz-adv-x="741" d="M82 1444q0 -94 26.5 -184.5t45.5 -182.5h61q18 92 45 182.5t27 184.5q0 45 -29 73.5t-74 28.5t-73.5 -28.5t-28.5 -73.5zM455 1444q0 -94 26.5 -184.5t44.5 -182.5h62q18 92 44.5 182.5t26.5 184.5q0 45 -28.5 73.5t-73.5 28.5t-73.5 -28.5t-28.5 -73.5z" />
<glyph unicode="#" horiz-adv-x="1466" d="M82 492h338l-68 -355h105l67 355h316l-68 -355h105l67 355h332l20 104h-331l59 315h340l20 105h-340l68 356h-104l-68 -356h-315l67 356h-104l-68 -356h-330l-20 -105h330l-60 -315h-338zM545 596l59 315h316l-60 -315h-315z" />
<glyph unicode="$" horiz-adv-x="1054" d="M72 156q92 -86 197.5 -138.5t234.5 -52.5h18v-158h74v164q174 25 277.5 139.5t103.5 307.5q0 96 -34 163.5t-87 114.5t-121.5 80t-138.5 62v583q92 -10 175 -51t151 -100l61 86q-86 78 -180 128t-207 60v156h-74v-154q-86 -6 -157.5 -42t-121.5 -94t-79 -134t-29 -162 q0 -96 34 -159.5t89 -107.5t125 -75t139 -57v-627h-18q-102 0 -197.5 44t-173.5 110zM268 1122q0 57 18.5 108.5t52.5 92.5t80 66.5t103 31.5v-553q-51 20 -97 44t-81 53.5t-55.5 67.5t-20.5 89zM596 98v586q51 -23 96 -47.5t79 -59t53.5 -80t19.5 -106.5q0 -59 -19.5 -107 t-53.5 -85t-79 -62.5t-96 -38.5z" />
<glyph unicode="%" horiz-adv-x="1603" d="M102 0h129l1264 1511h-131zM104 1184q0 -72 19.5 -137.5t59.5 -114.5t98.5 -79t136.5 -30t136 30t98 79t59.5 114.5t19.5 137.5t-19.5 137t-59.5 115.5t-98 80t-136 29.5t-136.5 -29.5t-98.5 -80t-59.5 -116t-19.5 -136.5zM207 1184q0 51 11 100t36 88t64.5 62.5 t99.5 23.5q57 0 98 -23.5t65.5 -62.5t36 -88t11.5 -100t-11.5 -100.5t-36 -88.5t-65.5 -62.5t-98 -23.5q-59 0 -99 23.5t-65 62.5t-36 88.5t-11 100.5zM874 332q0 -72 19.5 -137.5t59.5 -114.5t98.5 -79t136.5 -30t136 30t98 79t59.5 114.5t19.5 137.5t-19.5 137.5 t-59.5 115.5t-98 79.5t-136 29.5t-136.5 -29.5t-98.5 -79.5t-59.5 -116t-19.5 -137zM977 332q0 51 11 100t36 88t64.5 62.5t99.5 23.5q57 0 98 -23.5t65.5 -62.5t36 -88t11.5 -100t-11.5 -100.5t-36 -88.5t-65.5 -62.5t-98 -23.5q-59 0 -99 23.5t-65 62.5t-36 88.5 t-11 100.5z" />
<glyph unicode="&#x26;" horiz-adv-x="1380" d="M102 377q0 -104 37 -182t101.5 -129.5t150.5 -76t184 -24.5q125 0 220.5 58.5t167.5 152.5l137 -176h178l-236 303q66 125 107 261t59 253l-98 21q-16 -92 -51 -210t-92 -229l-414 533q-25 33 -47.5 63.5t-37.5 62.5t-24.5 67.5t-9.5 78.5t17.5 83t46 71t68.5 48t83 17 q100 0 171 -43t138 -110l72 86q-41 43 -83 77.5t-87 60.5t-97 39t-114 13q-72 0 -136 -25.5t-114.5 -71.5t-80 -108.5t-29.5 -136.5q0 -59 11 -105t30.5 -87t47.5 -81t60 -85q-72 -33 -132 -80t-106 -106.5t-72 -130t-26 -152.5zM246 377q0 70 19.5 125t55 101t84 83 t103.5 72l381 -488q-59 -80 -137 -131t-177 -51q-70 0 -130 17.5t-104 53.5t-69.5 90t-25.5 128z" />
<glyph unicode="'" horiz-adv-x="368" d="M82 1444q0 -94 26.5 -184.5t45.5 -182.5h61q18 92 45 182.5t27 184.5q0 45 -29 73.5t-74 28.5t-73.5 -28.5t-28.5 -73.5z" />
<glyph unicode="(" horiz-adv-x="679" d="M102 567q0 -143 25 -282.5t77 -266.5t136 -237.5t205 -196.5l33 41q-102 92 -167 202t-102 229.5t-50 248.5t-13 262q0 131 13 261t49 250t100.5 229.5t166.5 201.5l-30 41q-121 -86 -205 -196.5t-136 -237.5t-77 -266t-25 -283z" />
<glyph unicode=")" horiz-adv-x="679" d="M102 -375l33 -41q119 86 204 196.5t137 237.5t77 266.5t25 282.5q0 238 -68 459t-225 393q-35 35 -72 69t-78 62l-31 -41q102 -92 167 -201.5t101 -229.5t49 -250t13 -261q0 -133 -13 -262t-50 -248.5t-101.5 -229.5t-167.5 -202z" />
<glyph unicode="*" horiz-adv-x="935" d="M102 1001l52 -90l278 185l6 -2l-20 -332h102l-20 332l6 4l276 -185l52 91l-297 147l-2 8l299 148l-52 88l-278 -183l-6 2l20 332h-102l20 -332l-6 -4l-276 183l-52 -88l297 -148l2 -8z" />
<glyph unicode="+" horiz-adv-x="1398" d="M82 631h565v-565h105v565h565v104h-565v565h-105v-565h-565v-104z" />
<glyph unicode="," horiz-adv-x="458" d="M82 -285h123q10 23 38.5 78t58.5 116.5t52.5 115.5t22.5 77q0 49 -36 85t-85 36t-85 -35.5t-36 -85.5q0 -37 21.5 -67.5t56.5 -44.5z" />
<glyph unicode="-" horiz-adv-x="794" d="M82 580l631 30v92h-631v-122z" />
<glyph unicode="." horiz-adv-x="405" d="M82 102q0 -49 36 -84.5t85 -35.5t85 35.5t36 84.5t-36 85t-85 36t-85 -35.5t-36 -85.5z" />
<glyph unicode="/" horiz-adv-x="952" d="M20 -387l86 -39l826 1954l-86 39z" />
<glyph unicode="0" d="M57 541q0 -115 33 -219.5t97.5 -183.5t159.5 -126t218 -47t217.5 47t159 126t98 183.5t33.5 219.5t-33.5 219t-98 184t-159 127t-217.5 47t-218 -47t-159.5 -127t-97.5 -184.5t-33 -218.5zM201 541q0 82 22.5 163.5t67.5 146t113.5 104.5t160.5 40t161 -40t114 -104.5 t67.5 -146t22.5 -163.5t-22.5 -164t-67.5 -146.5t-114 -104.5t-161 -40t-160.5 40t-113.5 104.5t-67.5 146.5t-22.5 164z" />
<glyph unicode="1" d="M184 860l29 -61l319 127v-803q-20 0 -59 -6t-82 -15.5t-83 -17.5t-62 -12v-72h696v72q-23 4 -59.5 12t-75.5 17.5t-75 15.5t-56 6v995h-82z" />
<glyph unicode="2" d="M115 907l65 -80q70 76 156 122t192 46q135 0 204 -70.5t69 -191.5q0 -66 -33 -126t-87 -115.5t-123 -105.5t-140.5 -96t-141 -88t-124.5 -79v-123h870v143h-639q96 57 196.5 121t181.5 136.5t132 157.5t51 187q0 80 -28.5 148t-83 118t-131 78.5t-173.5 28.5 q-123 0 -229 -61.5t-184 -149.5z" />
<glyph unicode="3" d="M109 907l65 -80q72 72 155 120t187 48q45 0 86 -16t74 -46t52.5 -70t19.5 -85q0 -98 -50.5 -165.5t-127 -111.5t-166 -71t-166.5 -41l24 -100q39 8 77 13t77 5q66 0 134 -19.5t124.5 -57t92.5 -95t36 -131.5q0 -121 -62.5 -210t-162 -147.5t-221 -86t-238.5 -27.5v-102 q90 0 187 13t188.5 42t173.5 74t144 108.5t98 147.5t36 188q0 76 -27.5 143.5t-74.5 118.5t-112.5 85t-139.5 44q61 25 116.5 62t95.5 84t63.5 106.5t23.5 130.5q0 82 -30 145.5t-81 106.5t-119.5 65.5t-144.5 22.5q-135 0 -227 -57t-180 -154z" />
<glyph unicode="4" d="M16 78l43 -64l621 37v-526h143v534l277 17v74h-277v933l-110 35zM190 150l490 712v-712h-490z" />
<glyph unicode="5" d="M147 -489v-97q86 12 182.5 40t189.5 71t179 100.5t150.5 129t103.5 156.5t39 183q0 135 -63.5 231.5t-162.5 158t-220 89t-234 27.5l58 344h602v143h-699l-88 -618q57 0 129 -5t145.5 -19.5t143.5 -40t125 -67.5t88 -101.5t33 -141.5t-32 -153.5t-86 -131t-126 -108.5 t-149.5 -86t-157.5 -63.5t-150 -40.5z" />
<glyph unicode="6" d="M90 520q0 -111 30 -211t89 -177t148 -122t210 -45q102 0 189.5 44t150 116t98 164t35.5 190q0 106 -32.5 196.5t-94 155t-149.5 100.5t-197 36q-78 0 -153.5 -37t-137.5 -90q33 127 92.5 232.5t144.5 196.5t196.5 167.5t248.5 146.5l-40 82q-182 -82 -334 -192.5 t-261.5 -253t-171 -316.5t-61.5 -383zM233 479q0 57 4.5 109.5t10.5 103.5q59 66 144 109t175 43q78 0 139.5 -30t103.5 -79t64.5 -115.5t22.5 -140.5q0 -68 -23.5 -137.5t-67.5 -125.5t-104.5 -92t-134.5 -36t-134 36t-105 92t-70 126t-25 137z" />
<glyph unicode="7" d="M145 944h699l-535 -1407l82 -31l596 1440l-49 141h-793v-143z" />
<glyph unicode="8" d="M109 371q0 -98 35.5 -173t98 -127.5t144.5 -79t174 -26.5q88 0 171 27.5t147.5 80t103.5 128.5t39 170q0 80 -28.5 144.5t-76 116.5t-108.5 93t-125 72q61 31 115.5 66.5t94.5 81.5t63.5 103.5t23.5 133.5q0 90 -35 157.5t-92 113.5t-134 69.5t-159 23.5t-156.5 -24.5 t-131 -70.5t-90 -114.5t-33.5 -154.5q0 -78 23.5 -136.5t63 -105.5t94 -84t115.5 -70q-61 -27 -121.5 -68.5t-108.5 -95t-77.5 -117t-29.5 -134.5zM233 371q0 70 29 124t74 97t101.5 76.5t111.5 60.5q51 -27 112.5 -60.5t113.5 -77.5t88 -98t36 -122q0 -70 -29.5 -122 t-77 -88t-107.5 -54.5t-124 -18.5q-63 0 -121.5 18.5t-104.5 54.5t-74 89t-28 121zM272 1182q0 61 25 106t64.5 76t92 45t107.5 14q53 0 106.5 -15t95.5 -46t68.5 -76t26.5 -104q0 -68 -23.5 -117t-62.5 -87t-89 -68.5t-101 -57.5q-49 23 -104.5 53.5t-100.5 71.5t-75 92 t-30 113z" />
<glyph unicode="9" d="M90 604q0 -106 33 -196.5t94.5 -155t149.5 -100t196 -35.5q78 0 154 36.5t137 90.5q-66 -254 -241 -434.5t-461 -319.5l41 -82q186 82 342.5 194.5t268 257t174 319.5t62.5 384q0 111 -29.5 211t-89 177t-148.5 122t-210 45q-102 0 -189 -44t-149.5 -115.5t-98.5 -164 t-36 -190.5zM233 604q0 68 24 137.5t68 126t104 92t134 35.5t134.5 -35.5t105.5 -92t69.5 -126t24.5 -137.5q0 -57 -4 -109.5t-10 -103.5q-59 -66 -144.5 -108.5t-175.5 -42.5q-78 0 -139.5 29.5t-103 78.5t-64.5 115.5t-23 140.5z" />
<glyph unicode=":" horiz-adv-x="405" d="M82 102q0 -49 36 -84.5t85 -35.5t85 35.5t36 84.5t-36 85t-85 36t-85 -35.5t-36 -85.5zM82 958q0 -49 36 -84.5t85 -35.5t85 35.5t36 84.5t-36 85t-85 36t-85 -35.5t-36 -85.5z" />
<glyph unicode=";" horiz-adv-x="458" d="M82 -285h123q10 23 38.5 78t58.5 116.5t52.5 115.5t22.5 77q0 49 -36 85t-85 36t-85 -35.5t-36 -85.5q0 -37 21.5 -67.5t56.5 -44.5zM135 958q0 -49 36 -84.5t85 -35.5t85 35.5t36 84.5t-36 85t-85 36t-85 -35.5t-36 -85.5z" />
<glyph unicode="&#x3c;" horiz-adv-x="1079" d="M41 682l877 -614l59 86l-754 528l754 528l-59 86z" />
<glyph unicode="=" horiz-adv-x="1398" d="M82 465h1235v104h-1235v-104zM82 797h1235v104h-1235v-104z" />
<glyph unicode="&#x3e;" horiz-adv-x="1079" d="M102 154l60 -86l876 614l-876 614l-60 -86l754 -528z" />
<glyph unicode="?" horiz-adv-x="845" d="M102 1407l50 -78q53 43 130.5 72t145.5 29q49 0 90 -18.5t70.5 -50.5t46 -75t16.5 -90q0 -78 -29.5 -136.5t-76.5 -104.5t-106.5 -81.5t-119.5 -68.5l19 -359h102l19 306q61 35 121.5 80t108.5 100t77 120.5t29 143.5q0 80 -29 144.5t-78 110.5t-115.5 70.5t-144.5 24.5 q-92 0 -175 -40t-151 -99zM268 102q0 -49 36 -84.5t85 -35.5t85 35.5t36 84.5t-36 85t-85 36t-85 -35.5t-36 -85.5z" />
<glyph unicode="@" horiz-adv-x="1744" d="M102 727q0 -164 59.5 -303t162 -240.5t243 -160t301.5 -58.5q111 0 218.5 34t205.5 81l-28 72q-96 -41 -193.5 -71t-202.5 -30q-145 0 -265 52.5t-208 143.5t-136 215t-48 265q0 154 51 288t143.5 232.5t221.5 155.5t286 57q131 0 248 -40t205 -115.5t139 -185t51 -247.5 q0 -66 -18 -145.5t-57 -149t-97.5 -115.5t-138.5 -46q-59 0 -93 30.5t-34 90.5q0 35 8 61l170 592h-104l-31 -100q-12 31 -36.5 52t-57.5 36.5t-66.5 22.5t-64.5 7q-102 0 -195.5 -51t-164 -132t-111.5 -181.5t-41 -198.5q0 -51 15.5 -104.5t46 -97.5t79.5 -72.5t117 -28.5 q106 0 189 49t145 135q10 -86 61 -141t142 -55q104 0 184 50t133 129t79.5 175t26.5 188q0 160 -57 285t-156.5 211t-232.5 132t-285 46q-174 0 -321.5 -63.5t-256 -174t-170 -260t-61.5 -321.5zM547 645q0 70 32.5 154t88 155.5t125 119.5t143.5 48q37 0 65.5 -15t49 -40 t32 -57.5t11.5 -67.5q0 -70 -30 -158t-80 -166.5t-118.5 -132t-146.5 -53.5q-43 0 -76 19.5t-54.5 50t-31.5 68.5t-10 75z" />
<glyph unicode="A" horiz-adv-x="1148" d="M31 0h127l159 487l504 -30l148 -457h149l-504 1546h-84zM348 582l217 665l215 -665h-432z" />
<glyph unicode="B" horiz-adv-x="1046" d="M102 0h385q96 0 184.5 29.5t156 85t107.5 135.5t40 182q0 78 -27.5 140.5t-76 110.5t-113 79t-135.5 43q123 33 204.5 126t81.5 224q0 90 -35.5 156.5t-94 111.5t-134.5 66.5t-158 21.5h-385v-1511zM246 123v614h241q68 0 130.5 -20.5t110.5 -60.5t75.5 -97t27.5 -129 t-27.5 -129t-75.5 -97t-110.5 -60.5t-130.5 -20.5h-241zM246 860v529h241q55 0 106.5 -13.5t89.5 -42t60.5 -73t22.5 -105.5q0 -59 -21.5 -112.5t-58.5 -93.5t-88 -64.5t-111 -24.5h-241z" />
<glyph unicode="C" horiz-adv-x="1155" d="M82 739q0 -133 29.5 -270t97 -250t176.5 -183.5t266 -70.5q129 0 234.5 52.5t197.5 138.5l-61 86q-78 -66 -173 -110t-198 -44q-117 0 -197.5 66.5t-132 166t-74 213t-22.5 207.5q0 63 9.5 139t29 152t52 146.5t80.5 125t110.5 87t144.5 32.5q102 0 197.5 -44t173.5 -109 l61 86q-92 86 -197.5 138t-234.5 52q-106 0 -189 -34.5t-146.5 -95t-107.5 -141.5t-73 -170t-41 -183.5t-12 -182.5z" />
<glyph unicode="D" horiz-adv-x="1177" d="M102 0h377q162 0 278.5 67.5t191.5 177t111 249t36 282.5q0 147 -36 280.5t-111 235t-191.5 160.5t-278.5 59h-377v-1511zM246 123v1266h233q125 0 215 -54.5t147.5 -141.5t84 -196.5t26.5 -218.5q0 -104 -26.5 -220t-84 -213t-147.5 -159.5t-215 -62.5h-233z" />
<glyph unicode="E" horiz-adv-x="978" d="M102 0h795v123h-651v594l528 51v92h-528v529h651v122h-795v-1511z" />
<glyph unicode="F" horiz-adv-x="937" d="M102 0h144v717l549 51v92h-549v529h651v122h-795v-1511z" />
<glyph unicode="G" horiz-adv-x="1185" d="M102 739q0 -133 30 -270t97.5 -250t176 -183.5t266.5 -70.5q125 0 232.5 52.5t199.5 134.5v542h-447v-92l304 -35v-387q-66 -41 -138.5 -66.5t-150.5 -25.5q-117 0 -198 66.5t-132 166t-73.5 213t-22.5 207.5q0 63 9 139t28.5 152t52.5 146.5t81 125t110.5 87t144.5 32.5 q102 0 197.5 -44t172.5 -109l62 86q-92 86 -197.5 138t-234.5 52q-106 0 -189.5 -34.5t-147 -95t-107.5 -141.5t-72.5 -170t-41 -183.5t-12.5 -182.5z" />
<glyph unicode="H" horiz-adv-x="1200" d="M102 0h144v760l708 -43v-717h144v1511h-144v-651h-708v651h-144v-1511z" />
<glyph unicode="I" horiz-adv-x="471" d="M164 0h143v1511h-143v-1511z" />
<glyph unicode="J" horiz-adv-x="534" d="M-61 -430v-102q127 0 233.5 64.5t161.5 178.5q2 6 8 21.5l12 31t11.5 31t5.5 21.5v1695h-144v-1695q0 -57 -25.5 -102.5t-66.5 -77t-93 -49t-103 -17.5z" />
<glyph unicode="K" horiz-adv-x="1032" d="M102 0h144v602q14 18 20 25.5t11.5 13.5t12.5 15.5t23 29.5l488 -686h176l-567 805l571 706h-154l-581 -714v714h-144v-1511z" />
<glyph unicode="L" horiz-adv-x="937" d="M102 0h795v123h-651v1388h-144v-1511z" />
<glyph unicode="M" horiz-adv-x="1345" d="M92 0h123l64 1180l337 -926h93l342 936l63 -1190h139l-75 1511h-144l-360 -991l-359 991h-143z" />
<glyph unicode="N" horiz-adv-x="1134" d="M102 0h123v1223l701 -1223h106v1511h-123v-1192l-686 1192h-121v-1511z" />
<glyph unicode="O" horiz-adv-x="1366" d="M82 754q0 -139 34 -280.5t105.5 -254.5t186 -183.5t276.5 -70.5t275.5 70.5t186.5 183.5t105.5 254.5t32.5 280.5t-32.5 280.5t-105.5 255t-186.5 185t-275.5 71.5t-276.5 -71.5t-186 -185t-105.5 -255t-34 -280.5zM225 754q0 100 25.5 218t81 218t142.5 166.5t210 66.5 t209 -66.5t141.5 -166.5t81 -218t25.5 -218q0 -102 -25.5 -218t-81 -216.5t-141.5 -166t-209 -65.5t-210 65.5t-142.5 166t-81 216t-25.5 218.5z" />
<glyph unicode="P" horiz-adv-x="966" d="M102 0h144v614h196q100 0 183.5 34t143.5 94.5t93 144.5t33 184t-34 182t-93 139.5t-142 88t-184 30.5h-340v-1511zM246 737v652h196q68 0 125.5 -25t98.5 -68t63.5 -100t22.5 -125q0 -66 -22.5 -126t-63.5 -106t-98.5 -74t-125.5 -28h-196z" />
<glyph unicode="Q" horiz-adv-x="1380" d="M82 754q0 -139 32.5 -280.5t105.5 -254.5t186.5 -183.5t275.5 -70.5q80 -10 150.5 -29.5t137 -54.5t130 -86t127.5 -123l82 76q-80 115 -171 180.5t-190 102.5q88 49 152.5 128t104.5 176t59.5 204.5t19.5 214.5q0 139 -32.5 280.5t-105.5 255t-186.5 185t-275.5 71.5 t-276.5 -71.5t-186 -185t-105.5 -255t-34 -280.5zM236 754q0 100 23.5 218t77.5 218t139 166.5t208 66.5t209 -66.5t138 -166.5t75.5 -218t23.5 -218t-23.5 -217t-75.5 -216.5t-138 -166t-209 -66.5t-209 66.5t-139 166t-76.5 216t-23.5 217.5z" />
<glyph unicode="R" horiz-adv-x="997" d="M102 0h144v614h176l328 -614h165l-342 637q143 45 226.5 164t83.5 282q0 104 -34 184.5t-95.5 134.5t-145.5 81.5t-184 27.5h-322v-1511zM246 737v652h178q68 0 126 -21.5t100 -61.5t65.5 -96.5t23.5 -126.5q0 -68 -22.5 -130t-64.5 -110t-100 -77t-128 -29h-178z" />
<glyph unicode="S" horiz-adv-x="1075" d="M82 156q92 -86 197.5 -138.5t234.5 -52.5q104 0 191.5 31t150 88t97 141t34.5 193q0 123 -52 199.5t-131 127t-171 83t-171 70.5t-131 88t-52 136q0 61 20 115.5t57 95.5t89.5 65.5t115.5 24.5q102 0 197.5 -44t173.5 -109l61 86q-92 86 -197.5 138t-234.5 52 q-92 0 -168 -33.5t-131 -92t-86 -137.5t-31 -169q0 -121 52.5 -191.5t131.5 -116.5t171 -78t171 -73t131 -101t52 -163q0 -72 -27.5 -127t-74.5 -95t-108.5 -60.5t-129.5 -20.5q-102 0 -197.5 44t-173.5 110z" />
<glyph unicode="T" horiz-adv-x="1146" d="M41 1389h461v-1389h143v1389h461v122h-1065v-122z" />
<glyph unicode="U" horiz-adv-x="1191" d="M92 483q0 -109 31 -204t90 -164.5t147.5 -109.5t202.5 -40q113 0 211 38t171 105.5t114 162.5t41 212v1028h-123v-1028q0 -80 -27.5 -152.5t-79 -125.5t-121 -85t-151.5 -32q-84 0 -151.5 32t-114.5 85t-71.5 125.5t-24.5 152.5v1028h-144v-1028z" />
<glyph unicode="V" horiz-adv-x="1136" d="M31 1511l504 -1546h71l500 1546h-115l-405 -1249l-404 1249h-151z" />
<glyph unicode="W" horiz-adv-x="1798" d="M20 1511l504 -1546h72l295 1174l315 -1174h72l500 1546h-115l-397 -1230l-326 1230h-72l-301 -1202l-395 1202h-152z" />
<glyph unicode="X" horiz-adv-x="1167" d="M82 0h141l352 618l345 -618h165l-426 764l426 747h-139l-356 -622l-348 622h-160l426 -768z" />
<glyph unicode="Y" horiz-adv-x="1067" d="M31 1511l432 -849v-662h143v668l430 843h-133l-358 -702l-357 702h-157z" />
<glyph unicode="Z" horiz-adv-x="1064" d="M72 0h921v123h-757l747 1266v122h-897v-122h727l-741 -1266v-123z" />
<glyph unicode="[" horiz-adv-x="575" d="M102 -387h371v57h-227v1784h227v57h-371v-1898z" />
<glyph unicode="\" horiz-adv-x="952" d="M20 1528l826 -1954l86 39l-826 1954z" />
<glyph unicode="]" horiz-adv-x="575" d="M102 -330v-57h371v1898h-371v-57h228v-1784h-228z" />
<glyph unicode="^" horiz-adv-x="1056" d="M102 973h113l313 420l314 -420h112l-426 573z" />
<glyph unicode="_" horiz-adv-x="1163" d="M0 -295v-115h1163v115h-1163z" />
<glyph unicode="`" horiz-adv-x="503" d="M102 1483q0 -31 12.5 -60.5t32.5 -52.5l211 -252l43 27l-133 321q-12 31 -34.5 55.5t-59.5 24.5q-31 0 -51.5 -14t-20.5 -49z" />
<glyph unicode="a" horiz-adv-x="903" d="M72 283q0 -61 23.5 -115.5t65.5 -96.5t96 -65.5t116 -23.5q51 0 92 9t77 26.5t67.5 44t68.5 61.5v-123h133v717q0 178 -91 289.5t-278 111.5q-86 0 -172 -28.5t-159 -69.5l34 -80q61 29 134 49.5t143 20.5q76 0 125 -19.5t77.5 -57.5t41 -93.5t12.5 -124.5 q-98 0 -205.5 -22.5t-197 -74t-146.5 -134.5t-57 -201zM205 287q0 94 45 155.5t114.5 98.5t153.5 51t160 14v-387q-23 -29 -58.5 -53.5t-76.5 -40.5t-84 -25.5t-78 -9.5q-41 0 -74 16.5t-55.5 44t-34.5 62.5t-12 74z" />
<glyph unicode="b" horiz-adv-x="1032" d="M123 123q72 -76 149.5 -115t184.5 -39q131 0 224 53.5t153.5 139.5t88 196.5t27.5 227.5q0 96 -23.5 191t-73.5 171t-128 123t-188 47q-86 0 -150.5 -27.5t-130.5 -80.5v602h-133v-1489zM256 143v758q66 59 128 84t153 25q76 0 130 -44t86.5 -109.5t48 -140.5t15.5 -136 q0 -88 -17.5 -177.5t-58.5 -162t-110.5 -117.5t-173.5 -45q-23 0 -50.5 4t-55 13t-52.5 20.5t-43 27.5z" />
<glyph unicode="c" horiz-adv-x="925" d="M82 504q0 -102 31.5 -198.5t93 -170.5t148.5 -119t198 -45q96 0 172.5 37t148.5 94l-34 72q-70 -47 -135.5 -68.5t-151.5 -21.5q-80 0 -143.5 39t-106.5 99.5t-65.5 135t-22.5 146.5q0 82 14.5 172t52 164.5t103.5 123t168 48.5q158 0 287 -97l30 74q-72 66 -145.5 97.5 t-171.5 31.5q-127 0 -216 -55t-146.5 -142t-83 -197t-25.5 -220z" />
<glyph unicode="d" horiz-adv-x="1052" d="M82 512q0 -102 25.5 -198.5t80 -173.5t136.5 -123t196 -46q41 0 80 14.5t74 38t66.5 53t56.5 58.5v-135h133v1612h-133v-623q-55 53 -127 91t-150 38q-115 0 -196.5 -58.5t-136 -148.5t-80 -196.5t-25.5 -202.5zM215 512q0 68 15.5 154t51 162.5t94 129t144.5 52.5 q78 0 150.5 -38t126.5 -91v-631q-18 -31 -50 -60.5t-70 -54t-79 -40t-78 -15.5q-86 0 -144.5 41t-94 103.5t-51 139t-15.5 148.5z" />
<glyph unicode="e" horiz-adv-x="927" d="M82 522q0 -102 20.5 -200.5t68.5 -176t128 -126t199 -48.5q51 0 96 12.5t86 32t82 44t82 49.5l-31 75q-72 -43 -150.5 -72.5t-164.5 -29.5q-100 0 -156.5 48t-84.5 121t-35 159t-7 161l631 50q0 86 -13.5 174t-50.5 160.5t-103.5 117.5t-172.5 45q-121 0 -202 -55 t-130 -142t-70.5 -192.5t-21.5 -206.5zM227 694q6 55 26.5 111.5t54.5 101.5t82 74t112 29q57 0 97 -23.5t65.5 -61.5t38 -87.5t12.5 -98.5v-22t-2 -23h-486z" />
<glyph unicode="f" horiz-adv-x="759" d="M51 981h146v-981h133v981l430 45v64h-430q0 78 8 161.5t39 152.5t89 113t159 44q27 0 59.5 -3.5t66 -9.5t64.5 -16t55 -23l37 72q-29 18 -63.5 32.5t-72.5 26t-76 17.5t-70 6q-123 0 -206 -50t-132 -131t-69.5 -184.5t-20.5 -207.5h-146v-109z" />
<glyph unicode="g" horiz-adv-x="989" d="M31 -147q49 -152 165.5 -245t278.5 -93q76 0 150.5 19.5t135 61.5t97.5 104t37 148q0 82 -34 135.5t-90 84t-128 43t-147 12.5h-74t-96 10q-31 6 -52.5 18.5t-21.5 34.5q0 37 25.5 62.5t61.5 41t76 22.5t68 7q88 0 160 30t122 83t76.5 127t26.5 160q0 94 -47 177 t-125 134l262 21v67h-475q-88 0 -159.5 -29.5t-121.5 -83t-77 -127t-27 -159.5q0 -117 52.5 -214t150.5 -145q-72 -25 -115 -66.5t-43 -107.5q0 -84 51.5 -122.5t127.5 -51.5q41 -8 86 -9t88 -1q53 0 101 -5t85 -21.5t58.5 -47t21.5 -80.5q0 -59 -25.5 -101t-66.5 -69.5 t-92.5 -41t-102.5 -13.5q-127 0 -211 77t-127 189zM231 719q0 53 17.5 105.5t50.5 93t80 66.5t104 26t104.5 -26t80 -66.5t50 -93t17.5 -105.5t-17.5 -105.5t-50 -93.5t-79.5 -66.5t-105 -25.5q-57 0 -104 25.5t-80 66.5t-50.5 93.5t-17.5 105.5z" />
<glyph unicode="h" horiz-adv-x="1019" d="M123 0h133v805q33 39 71 74.5t80 64.5t90 46.5t101 17.5q88 0 142.5 -51.5t54.5 -143.5v-813h133v942q-53 88 -140.5 132t-189.5 44q-55 0 -102 -16.5t-89 -44t-79 -63.5t-72 -74v692h-133v-1612z" />
<glyph unicode="i" horiz-adv-x="466" d="M133 1411q0 -41 30 -70.5t70 -29.5q41 0 71 29.5t30 70.5t-30 70.5t-71 29.5t-70.5 -29.5t-29.5 -70.5zM166 0h133v1090h-133v-1090z" />
<glyph unicode="j" horiz-adv-x="466" d="M-31 -498v-59q129 20 206 94t128 191v1362h-133v-1285q0 -113 -43 -190.5t-158 -112.5zM133 1411q0 -41 30 -70.5t70 -29.5q41 0 71 29.5t30 70.5t-30 70.5t-71 29.5t-70.5 -29.5t-29.5 -70.5z" />
<glyph unicode="k" horiz-adv-x="882" d="M123 0h133v436l70 80l331 -516h156l-395 621l413 469h-137l-438 -480v1002h-133v-1612z" />
<glyph unicode="l" horiz-adv-x="460" d="M164 0h133v1612h-133v-1612z" />
<glyph unicode="m" horiz-adv-x="1478" d="M102 0h134v827q20 31 53 62t70.5 56.5t77.5 40.5t79 15q33 0 61.5 -15t50 -39.5t35 -56.5t13.5 -63v-827h133v827q18 31 51 62t71 55.5t79 40.5t77 16q33 0 63 -15t52.5 -39.5t35.5 -55.5t13 -64v-827h135v942q-33 74 -92 125t-145 51q-104 0 -191.5 -50t-148.5 -132 q-35 74 -90 128t-144 54q-59 0 -105 -12t-86 -35.5t-76 -57.5t-72 -77v154h-134v-1090z" />
<glyph unicode="n" horiz-adv-x="999" d="M102 0h134v805q31 39 70.5 74.5t84.5 64.5t96.5 46.5t104.5 17.5q96 0 139 -55.5t43 -147.5v-805h133v942q-47 82 -111.5 129t-166.5 47q-66 0 -122 -16.5t-105.5 -44t-90.5 -63.5t-75 -74v170h-134v-1090z" />
<glyph unicode="o" d="M92 543q0 -111 27.5 -214.5t86 -182t147.5 -127t212 -48.5t212 48.5t147.5 127t86 182t27.5 214.5t-27.5 214t-86 183t-147.5 129t-212 49t-212 -49t-147.5 -129t-86 -183.5t-27.5 -213.5zM225 543q0 80 17.5 162.5t57.5 150.5t104.5 111t160.5 43q94 0 160 -43 t105.5 -111t57 -150.5t17.5 -162.5t-17.5 -163t-57 -149.5t-104 -108.5t-161.5 -42q-96 0 -160.5 42t-104.5 108.5t-57.5 149.5t-17.5 163z" />
<glyph unicode="p" horiz-adv-x="1052" d="M123 -481h133v547q47 -41 108.5 -68t118.5 -27q131 0 224.5 54.5t152 143.5t85 201.5t26.5 227.5q0 100 -23.5 193.5t-75 166t-131 116.5t-192.5 44q-82 0 -158 -35.5t-135 -95.5v103h-133v-1571zM256 184v699q47 63 116.5 95t147.5 32q82 0 141.5 -39t98.5 -99.5 t58.5 -134t19.5 -143.5t-20.5 -159t-62.5 -168t-104.5 -133t-146.5 -54q-74 0 -135.5 28.5t-112.5 75.5z" />
<glyph unicode="q" horiz-adv-x="1081" d="M82 543q0 -111 25.5 -214.5t82 -183t144.5 -127t213 -47.5q84 0 152.5 34t125.5 93v-579h133v1571h-133v-82q-55 47 -119.5 78.5t-138.5 31.5q-117 0 -208 -50t-152.5 -131t-93 -184.5t-31.5 -209.5zM215 537q0 74 22.5 157.5t67.5 153.5t110.5 116t151.5 46 q33 0 69 -12.5t69.5 -32t64.5 -45t55 -50.5v-661q-51 -53 -127.5 -91t-150.5 -38q-84 0 -146.5 45t-103.5 112.5t-61.5 147.5t-20.5 152z" />
<glyph unicode="r" horiz-adv-x="731" d="M102 0h134v645q0 49 19 113.5t54 122t83 97.5t108 40q45 0 93 -14.5t85 -40.5l37 65q-35 33 -87.5 61.5t-101.5 28.5q-104 0 -173.5 -56t-116.5 -144v172h-134v-1090z" />
<glyph unicode="s" horiz-adv-x="870" d="M82 123q74 -63 164 -107.5t190 -44.5q74 0 137.5 22.5t111.5 64.5t75.5 102.5t27.5 138.5q0 98 -39.5 157.5t-101 96.5t-131.5 60.5t-131 49t-101 60.5t-40 96q0 47 18.5 83t48 60.5t69.5 37t83 12.5q78 0 151.5 -24.5t135.5 -72.5l30 74q-66 59 -146.5 94t-170.5 35 q-70 0 -132.5 -18.5t-110.5 -55t-76.5 -93t-28.5 -132.5q0 -90 40 -144t101 -89t131 -57.5t131.5 -50t101 -68.5t39.5 -111q0 -106 -59 -161.5t-164 -55.5q-88 0 -168 32.5t-151 80.5z" />
<glyph unicode="t" horiz-adv-x="706" d="M51 981h146v-834q0 -6 6 -23.5t8 -23.5q23 -59 65.5 -94t108.5 -35q78 0 137.5 30t112.5 83l-37 63q-39 -29 -85 -48t-95 -19q-51 0 -69.5 35t-18.5 80v786l356 45v64h-356v299h-133v-299h-146v-109z" />
<glyph unicode="u" horiz-adv-x="999" d="M92 193q18 -47 50 -87t74 -70t90 -47.5t100 -17.5q51 0 102 16.5t97 44t86 63.5t73 75v-170h133v1090h-133v-811q-66 -86 -141.5 -131.5t-188.5 -45.5q-92 0 -150.5 55.5t-58.5 147.5v785h-133v-897z" />
<glyph unicode="v" horiz-adv-x="933" d="M31 1090l387 -1119h96l389 1119h-112l-312 -906l-309 906h-139z" />
<glyph unicode="w" horiz-adv-x="1415" d="M31 1090l387 -1119h86l219 801l248 -801h86l327 1119h-106l-248 -867l-268 867h-66l-231 -852l-293 852h-141z" />
<glyph unicode="x" horiz-adv-x="872" d="M41 0h127l258 424l246 -424h159l-323 559l323 531h-126l-259 -424l-245 424h-160l324 -560z" />
<glyph unicode="y" horiz-adv-x="991" d="M-100 -414q51 -35 114.5 -62.5t124.5 -27.5q78 0 135.5 33t100.5 85t72.5 116.5t54.5 128.5l459 1231h-130l-333 -900l-338 900h-144l410 -1090l-47 -135q-14 -41 -33.5 -87t-47.5 -85t-65.5 -63.5t-89.5 -24.5q-111 0 -211 51z" />
<glyph unicode="z" horiz-adv-x="839" d="M41 0h758v109h-594l594 872v109h-750v-109h588l-596 -872v-109z" />
<glyph unicode="{" horiz-adv-x="704" d="M102 528q66 -4 105 -34.5t60.5 -75.5t27.5 -100.5t6 -108.5q0 -59 -5 -118.5t-5 -119.5q0 -168 71.5 -260t239.5 -121v58q-90 23 -141 85t-51 154q0 88 3 176.5t3 176.5q0 68 -9.5 123t-35 96t-70.5 68.5t-119 37.5v13q74 10 119 37.5t70.5 68.5t35 96.5t9.5 122.5 q0 88 -3 176t-3 176q0 92 51 155t141 85v57q-168 -29 -239.5 -121t-71.5 -260q0 -59 5 -118.5t5 -118.5q0 -53 -6 -108.5t-27.5 -100.5t-60.5 -76t-105 -35v-86z" />
<glyph unicode="|" horiz-adv-x="319" d="M102 -459h115v2157h-115v-2157z" />
<glyph unicode="}" horiz-adv-x="704" d="M102 -352v-58q168 29 240 121t72 260q0 59 -5.5 119t-5.5 119q0 53 6.5 108.5t28 100.5t60 75.5t104.5 34.5v86q-66 4 -104.5 35t-60 76t-28 100.5t-6.5 108.5q0 59 5.5 118.5t5.5 118.5q0 168 -72 260.5t-240 120.5v-57q90 -23 141.5 -85t51.5 -155q0 -88 -3 -176 t-3 -176q0 -68 9 -123t34.5 -96t71 -68.5t118.5 -37.5v-13q-74 -10 -119 -37.5t-70.5 -68.5t-34.5 -96.5t-9 -122.5q0 -88 3 -176.5t3 -176.5q0 -92 -51 -154.5t-142 -84.5z" />
<glyph unicode="~" horiz-adv-x="1245" d="M102 725l43 -31q41 59 89.5 94t123.5 35q59 0 118 -25.5t120 -55t126.5 -55t139.5 -25.5q53 0 94 16t74 44t60.5 64.5t52.5 77.5l-43 31q-33 -53 -73 -92t-107 -39q-61 0 -118 24.5t-115 55t-119.5 55.5t-131.5 25q-113 0 -193.5 -52.5t-140.5 -146.5z" />
<glyph unicode="&#xad;" horiz-adv-x="794" d="M82 580l631 30v92h-631v-122z" />
<glyph unicode="&#x410;" horiz-adv-x="1148" d="M31 0h127l159 487l504 -30l148 -457h149l-504 1546h-84zM348 582l217 665l215 -665h-432z" />
<glyph unicode="&#x411;" horiz-adv-x="999" d="M102 0h342q102 0 191.5 35t155 97.5t102.5 149.5t37 191q0 113 -36 194t-99.5 133t-152.5 76.5t-193 24.5h-203v488h588v122h-732v-1511zM246 123v655h233q66 0 122 -22.5t97 -63.5t64.5 -96t23.5 -123q0 -63 -22.5 -125.5t-63.5 -113t-97 -81t-124 -30.5h-233z" />
<glyph unicode="&#x412;" horiz-adv-x="1056" d="M102 0h385q96 0 184.5 29.5t156 85t107.5 135.5t40 182q0 78 -27.5 140.5t-76 110.5t-113 79t-135.5 43q123 33 204.5 126t81.5 224q0 90 -35.5 156.5t-94 111.5t-134.5 66.5t-158 21.5h-385v-1511zM246 123v614h241q68 0 130.5 -20.5t110.5 -60.5t75.5 -97t27.5 -129 t-27.5 -129t-75.5 -97t-110.5 -60.5t-130.5 -20.5h-241zM246 860v529h241q55 0 106.5 -13.5t89.5 -42t60.5 -73t22.5 -105.5q0 -59 -21.5 -112.5t-58.5 -93.5t-88 -64.5t-111 -24.5h-241z" />
<glyph unicode="&#x413;" horiz-adv-x="876" d="M102 0h144v1389h610v122h-754v-1511z" />
<glyph unicode="&#x414;" horiz-adv-x="1406" d="M57 123v-500h84l58 377h1009l60 -377h82v500h-174v1388h-764q0 -154 -6.5 -338t-28 -371.5t-61.5 -363.5t-107 -315h-152zM344 123q39 74 70.5 173t54.5 210.5t38 231.5t25.5 236t15.5 222.5t5 192.5h479v-1266h-688z" />
<glyph unicode="&#x415;" horiz-adv-x="958" d="M102 0h795v123h-651v594l528 51v92h-528v529h651v122h-795v-1511z" />
<glyph unicode="&#x416;" horiz-adv-x="1646" d="M31 1511l571 -735l-569 -776h184l535 717v-717h143v717l535 -717h184l-570 776l572 735h-174l-547 -704v704h-143v-704l-547 704h-174z" />
<glyph unicode="&#x417;" horiz-adv-x="1046" d="M72 176q80 -86 184 -148.5t227 -62.5q98 0 186.5 30t154 87t103.5 138.5t38 185.5q0 158 -84 258t-238 135q135 45 214 144t79 245q0 96 -35 163.5t-95.5 110.5t-138 63.5t-163.5 20.5q-125 0 -237.5 -59.5t-194.5 -151.5l61 -86q70 76 168 125t203 49q57 0 109.5 -13 t92 -43t63.5 -75t24 -108q0 -86 -31 -147.5t-83 -100.5t-123 -57.5t-148 -18.5h-123v-125h123q74 0 147.5 -18.5t133 -56t96 -98t36.5 -146.5q0 -70 -27.5 -130.5t-73.5 -104.5t-107.5 -68.5t-129.5 -24.5q-51 0 -98 14.5t-91 39t-84 56t-77 64.5z" />
<glyph unicode="&#x418;" horiz-adv-x="1210" d="M102 0h156l707 1266v-1266h143v1511h-154l-708 -1265v1265h-144v-1511z" />
<glyph unicode="&#x419;" horiz-adv-x="1210" d="M102 0h156l707 1266v-1266h143v1511h-154l-708 -1265v1265h-144v-1511zM260 1878q0 -66 29.5 -115t78 -82.5t106.5 -51t116 -17.5q57 0 115.5 17.5t106.5 51t78 82.5t30 115h-70q-2 -35 -33 -61.5t-71.5 -45t-85 -27.5t-70.5 -9q-31 0 -73 9t-82 27.5t-69.5 45 t-35.5 61.5h-70z" />
<glyph unicode="&#x41a;" horiz-adv-x="1028" d="M102 0h144v602q14 18 20 25.5t11.5 13.5t12.5 15.5t23 29.5l488 -686h176l-567 805l571 706h-154l-581 -714v714h-144v-1511z" />
<glyph unicode="&#x41b;" horiz-adv-x="1302" d="M31 2q35 -16 74.5 -26.5t80.5 -10.5q76 0 133.5 42t100.5 112.5t70.5 166t46.5 201.5q20 127 30.5 261.5t13.5 256t3 222.5q0 102 2 162h471v-1389h143v1511h-756v-59q0 -41 1 -121t1 -184q0 -102 -4 -221t-14 -237t-29.5 -226.5t-50.5 -191.5t-75 -133t-103 -50 q-57 0 -111 21z" />
<glyph unicode="&#x41c;" horiz-adv-x="1345" d="M92 0h123l64 1180l337 -926h93l342 936l63 -1190h139l-75 1511h-144l-360 -991l-359 991h-143z" />
<glyph unicode="&#x41d;" horiz-adv-x="1200" d="M102 0h144v760l708 -43v-717h144v1511h-144v-651h-708v651h-144v-1511z" />
<glyph unicode="&#x41e;" horiz-adv-x="1366" d="M82 754q0 -139 34 -280.5t105.5 -254.5t186 -183.5t276.5 -70.5t275.5 70.5t186.5 183.5t105.5 254.5t32.5 280.5t-32.5 280.5t-105.5 255t-186.5 185t-275.5 71.5t-276.5 -71.5t-186 -185t-105.5 -255t-34 -280.5zM225 754q0 100 25.5 218t81 218t142.5 166.5t210 66.5 t209 -66.5t141.5 -166.5t81 -218t25.5 -218q0 -102 -25.5 -218t-81 -216.5t-141.5 -166t-209 -65.5t-210 65.5t-142.5 166t-81 216t-25.5 218.5z" />
<glyph unicode="&#x41f;" horiz-adv-x="1200" d="M102 0h144v1389h708v-1389h144v1511h-996v-1511z" />
<glyph unicode="&#x420;" horiz-adv-x="956" d="M102 0h144v614h196q100 0 183.5 34t143.5 94.5t93 144.5t33 184t-34 182t-93 139.5t-142 88t-184 30.5h-340v-1511zM246 737v652h196q68 0 125.5 -25t98.5 -68t63.5 -100t22.5 -125q0 -66 -22.5 -126t-63.5 -106t-98.5 -74t-125.5 -28h-196z" />
<glyph unicode="&#x421;" horiz-adv-x="1177" d="M82 739q0 -133 29.5 -270t97 -250t176.5 -183.5t266 -70.5q129 0 234.5 52.5t197.5 138.5l-61 86q-78 -66 -173 -110t-198 -44q-117 0 -197.5 66.5t-132 166t-74 213t-22.5 207.5q0 63 9.5 139t29 152t52 146.5t80.5 125t110.5 87t144.5 32.5q102 0 197.5 -44t173.5 -109 l61 86q-92 86 -197.5 138t-234.5 52q-106 0 -189 -34.5t-146.5 -95t-107.5 -141.5t-73 -170t-41 -183.5t-12 -182.5z" />
<glyph unicode="&#x422;" horiz-adv-x="1146" d="M41 1389h461v-1389h143v1389h461v122h-1065v-122z" />
<glyph unicode="&#x423;" horiz-adv-x="1140" d="M51 1511l453 -1175q-16 -41 -31.5 -85t-38 -80t-56.5 -59.5t-87 -23.5q-45 0 -81 17.5t-69 46.5l-53 -76q39 -47 82 -79t123 -32q70 0 118 21.5t82.5 58.5t59.5 86t47 107l490 1273h-134l-378 -991l-383 991h-144z" />
<glyph unicode="&#x424;" horiz-adv-x="1409" d="M82 786q0 -123 38 -231.5t108.5 -190t173 -130t231.5 -48.5v-186h143v186q129 0 231.5 48.5t173 130t108.5 190t38 231.5t-38 231.5t-108.5 191.5t-173 131.5t-231.5 48.5v157h-143v-157q-129 0 -231.5 -48.5t-173 -131.5t-108.5 -191.5t-38 -231.5zM225 786 q0 96 23.5 183.5t74 153t127 104.5t183.5 39v-957q-106 0 -183 39t-127.5 104.5t-74 151.5t-23.5 182zM776 309v957q106 0 183 -39t127.5 -104.5t74 -153t23.5 -183.5t-23.5 -182t-74 -151.5t-127 -104.5t-183.5 -39z" />
<glyph unicode="&#x425;" horiz-adv-x="1105" d="M51 0h142l352 618l344 -618h166l-426 764l426 747h-140l-356 -622l-348 622h-160l426 -768z" />
<glyph unicode="&#x426;" horiz-adv-x="1318" d="M102 0h996q0 -10 9 -63.5t21.5 -118t22.5 -121.5t14 -74h92v500h-159v1388h-144v-1388h-708v1388h-144v-1511z" />
<glyph unicode="&#x427;" horiz-adv-x="1052" d="M51 811q47 -117 129 -176.5t209 -59.5q47 0 101.5 5.5t110.5 13.5t109.5 20.5t96.5 28.5v-643h143v1511h-143v-749q-31 -10 -76 -17.5t-94 -12.5t-95 -8t-79 -3q-49 0 -97.5 7t-86 28.5t-61 58.5t-23.5 98v598h-144v-700z" />
<glyph unicode="&#x428;" horiz-adv-x="1802" d="M102 0h1598v1511h-144v-1388h-583v1388h-144v-1388h-583v1388h-144v-1511z" />
<glyph unicode="&#x429;" horiz-adv-x="1921" d="M102 0h1598q4 -92 27.5 -188.5t39.5 -188.5h93v500h-160v1388h-144v-1388h-583v1388h-144v-1388h-583v1388h-144v-1511z" />
<glyph unicode="&#x42a;" horiz-adv-x="1294" d="M10 1389h393v-1389h349q102 0 188 33t149.5 92t98.5 143.5t35 188.5t-36 187t-98.5 139.5t-149.5 87t-187 30.5h-205v610h-537v-122zM547 123v655h205q70 0 130 -23.5t104 -66.5t68.5 -102t24.5 -129t-24.5 -130.5t-68.5 -105.5t-104.5 -71.5t-129.5 -26.5h-205z" />
<glyph unicode="&#x42b;" horiz-adv-x="1368" d="M102 0h349q102 0 188 33t149.5 92t98.5 143.5t35 188.5t-36 187t-98.5 139.5t-149.5 87t-187 30.5h-205v610h-144v-1511zM246 123v655h205q70 0 130 -23.5t104 -66.5t68.5 -102t24.5 -129t-24.5 -130.5t-68.5 -105.5t-104.5 -71.5t-129.5 -26.5h-205zM1122 0h144v1511 h-144v-1511z" />
<glyph unicode="&#x42c;" horiz-adv-x="993" d="M102 0h349q102 0 188 33t149.5 92t98.5 143.5t35 188.5t-36 187t-98.5 139.5t-149.5 87t-187 30.5h-205v610h-144v-1511zM246 123v655h205q70 0 130 -23.5t104 -66.5t68.5 -102t24.5 -129t-24.5 -130.5t-68.5 -105.5t-104.5 -71.5t-129.5 -26.5h-205z" />
<glyph unicode="&#x42d;" horiz-adv-x="1173" d="M72 1335l67 -78q72 72 154 119t186 47q113 0 199 -57t144.5 -145t90 -194.5t35.5 -207.5h-577v-92l571 -51q-10 -100 -43 -204.5t-90 -189.5t-140 -139.5t-196 -54.5q-51 0 -96 14.5t-86 39t-78 56t-72 64.5l-61 -86q45 -53 87 -93t89 -65.5t102.5 -39t128.5 -13.5 q162 0 278 76t187.5 193.5t105.5 262t34 283.5q0 141 -36 278.5t-111 246t-190.5 175t-275.5 66.5q-70 0 -125 -15t-103 -43t-91 -67t-88 -86z" />
<glyph unicode="&#x42e;" horiz-adv-x="1675" d="M102 0h142v696h245q6 -131 36 -261t95.5 -234.5t171 -170t259.5 -65.5q164 0 269 74t165.5 188.5t84 256t23.5 274.5t-23.5 273t-84 255t-166 187.5t-268.5 72.5q-154 0 -259.5 -64.5t-171 -168t-95 -233.5t-36.5 -261h-245v692h-142v-1511zM631 758q0 102 16.5 219 t62.5 216t128 164.5t213 65.5t213 -65.5t128 -164.5t62 -216t16 -219q0 -68 -7 -144.5t-24.5 -150.5t-48 -142.5t-76.5 -119.5t-111.5 -82t-151.5 -31q-88 0 -152.5 31t-111 82t-77 119.5t-48 142.5t-24.5 150.5t-7 144.5z" />
<glyph unicode="&#x42f;" horiz-adv-x="974" d="M72 1083q0 -166 84 -285.5t229 -162.5l-293 -635h164l274 614h199v-614h143v1511h-342q-100 0 -184 -27.5t-145.5 -81.5t-95 -134t-33.5 -185zM215 1083q0 70 23.5 126.5t65.5 96.5t100.5 61.5t125.5 21.5h199v-652h-199q-72 0 -129 29t-99 77t-64.5 110.5t-22.5 129.5z " />
<glyph unicode="&#x430;" horiz-adv-x="882" d="M51 283q0 -61 23.5 -115.5t65.5 -96.5t96.5 -65.5t115.5 -23.5q51 0 92 9t77 26.5t68 44t68 61.5v-123h134v717q0 178 -91.5 289.5t-277.5 111.5q-86 0 -172 -28.5t-160 -69.5l35 -80q61 29 134 49.5t142 20.5q76 0 125 -19.5t78 -57.5t41 -93.5t12 -124.5 q-98 0 -205.5 -22.5t-196.5 -74t-146.5 -134.5t-57.5 -201zM184 287q0 94 45 155.5t115 98.5t154 51t159 14v-387q-23 -29 -58.5 -53.5t-76.5 -40.5t-84 -25.5t-78 -9.5q-41 0 -73.5 16.5t-55 44t-35 62.5t-12.5 74z" />
<glyph unicode="&#x431;" horiz-adv-x="1089" d="M82 528q0 -102 29.5 -202.5t88 -179t144.5 -128t201 -49.5t200.5 49.5t144 128t88.5 179t30 202.5t-28 200.5t-83 175.5t-139 123t-199 46q-135 0 -229 -67.5t-146 -190.5q0 82 13.5 173t48.5 170t95 138.5t155 81.5q121 29 239.5 54.5t239.5 52.5l-29 127l-463 -103 q-147 -33 -228 -121t-120 -205.5t-46 -250.5t-7 -256v-148zM215 528q0 72 23.5 149t67.5 141.5t108.5 105.5t144.5 41t139.5 -43t98.5 -107.5t58 -141.5t19 -145q0 -70 -21.5 -148.5t-62 -146t-103 -111.5t-142.5 -44t-142.5 44t-103.5 111.5t-62.5 146.5t-21.5 148z" />
<glyph unicode="&#x432;" horiz-adv-x="935" d="M102 0h392q68 0 134 21.5t118.5 61.5t85 98t32.5 132q0 57 -21.5 102.5t-57 78t-83 53t-100.5 26.5q47 8 88 31t72 56.5t48 77.5t17 93q0 70 -29.5 119t-77.5 80t-107.5 45.5t-118.5 14.5h-392v-1090zM236 109v407h258q45 0 88 -13.5t75.5 -39t53 -63.5t20.5 -87 t-20.5 -88t-53 -64.5t-75.5 -38.5t-88 -13h-258zM236 625v356h258q39 0 75.5 -11.5t64.5 -34t44 -55t16 -75.5q0 -86 -60.5 -133t-139.5 -47h-258z" />
<glyph unicode="&#x433;" horiz-adv-x="729" d="M102 0h134v983h462v107h-596v-1090z" />
<glyph unicode="&#x434;" horiz-adv-x="1142" d="M51 109v-461h86l49 352h770l50 -352h86v461h-142v981h-604q0 -117 -1 -247t-17.5 -261t-53 -253t-106.5 -220h-117zM285 109q70 86 108.5 193.5t57 222t21.5 232t3 224.5h342v-872h-532z" />
<glyph unicode="&#x435;" horiz-adv-x="927" d="M82 522q0 -102 20.5 -200.5t68.5 -176t128 -126t199 -48.5q51 0 96 12.5t86 32t82 44t82 49.5l-31 75q-72 -43 -150.5 -72.5t-164.5 -29.5q-100 0 -156.5 48t-84.5 121t-35 159t-7 161l631 50q0 86 -13.5 174t-50.5 160.5t-103.5 117.5t-172.5 45q-121 0 -202 -55 t-130 -142t-70.5 -192.5t-21.5 -206.5zM227 694q6 55 26.5 111.5t54.5 101.5t82 74t112 29q57 0 97 -23.5t65.5 -61.5t38 -87.5t12.5 -98.5v-22t-2 -23h-486z" />
<glyph unicode="&#x436;" horiz-adv-x="1300" d="M31 0h157l396 522v-522h133v522l395 -522h158l-422 561l412 529h-152l-391 -496v496h-133v-496l-391 496h-152l412 -529z" />
<glyph unicode="&#x437;" horiz-adv-x="849" d="M72 102q72 -57 148.5 -94t172.5 -37q72 0 139.5 21.5t120 62.5t84 101.5t31.5 138.5q0 117 -72.5 186.5t-181.5 91.5q100 18 163.5 94t63.5 179q0 74 -30.5 125t-79.5 83.5t-111.5 48t-126.5 15.5q-98 0 -172 -31.5t-145 -97.5l30 -74q66 49 134.5 73t152.5 24 q35 0 73 -11.5t69.5 -32t52 -52t20.5 -70.5q0 -55 -20.5 -96t-54 -69t-78.5 -42t-97 -14h-104v-109h106q49 0 98.5 -13.5t88.5 -41t63.5 -69.5t24.5 -97q0 -49 -20.5 -88t-54.5 -66.5t-78 -42t-89 -14.5q-86 0 -151.5 21.5t-135.5 68.5z" />
<glyph unicode="&#x438;" horiz-adv-x="960" d="M102 0h144l479 885v-885h133v1090h-143l-479 -885v885h-134v-1090z" />
<glyph unicode="&#x439;" horiz-adv-x="960" d="M102 0h144l479 885v-885h133v1090h-143l-479 -885v885h-134v-1090zM150 1546q0 -66 29.5 -115t77.5 -82.5t106.5 -51t115.5 -17.5t115.5 17.5t107 51t78 82.5t29.5 115h-70q-2 -35 -32.5 -61.5t-71.5 -45t-85 -27.5t-71 -9q-31 0 -72.5 9t-81.5 27.5t-70 45t-36 61.5h-69 z" />
<glyph unicode="&#x43a;" horiz-adv-x="866" d="M102 0h134v436l71 80l365 -516h143l-424 612l424 478h-135l-444 -500v500h-134v-1090z" />
<glyph unicode="&#x43b;" horiz-adv-x="1073" d="M10 18q23 -23 55.5 -35t61.5 -12q63 0 112.5 26t85 71t61.5 105t44 130q20 88 30.5 185.5t14.5 188.5t4 171t2 133h357v-981h133v1090h-627v-129t-1 -175.5t-7 -197t-19.5 -191.5t-34 -159.5t-53.5 -102.5q-20 -20 -46.5 -37.5t-55.5 -17.5q-41 0 -78 18z" />
<glyph unicode="&#x43c;" horiz-adv-x="1228" d="M92 0h113l57 877l313 -793h58l311 788l60 -872h133l-70 1090h-154l-295 -760l-299 760h-155z" />
<glyph unicode="&#x43d;" horiz-adv-x="960" d="M102 0h134v520l489 -35v-485h133v1090h-133v-476h-489v476h-134v-1090z" />
<glyph unicode="&#x43e;" horiz-adv-x="1110" d="M82 543q0 -111 27.5 -214.5t86 -182t147.5 -127t212 -48.5t212 48.5t147.5 127t86 182t27.5 214.5t-27.5 214t-86 183t-147.5 129t-212 49t-212 -49t-147.5 -129t-86 -183.5t-27.5 -213.5zM215 543q0 80 17.5 162.5t57.5 150.5t104.5 111t160.5 43q94 0 159.5 -43 t105.5 -111t57.5 -150.5t17.5 -162.5t-17.5 -163t-57.5 -149.5t-104.5 -108.5t-160.5 -42t-160.5 42t-104.5 108.5t-57.5 149.5t-17.5 163z" />
<glyph unicode="&#x43f;" horiz-adv-x="960" d="M102 0h134v981h489v-981h133v1090h-756v-1090z" />
<glyph unicode="&#x440;" horiz-adv-x="1042" d="M133 -481h133v547q47 -41 108.5 -68t119.5 -27q131 0 224 54.5t151.5 143.5t85 201.5t26.5 227.5q0 100 -23.5 193.5t-75 166t-131 116.5t-192.5 44q-82 0 -157.5 -35.5t-135.5 -95.5v103h-133v-1571zM266 184v699q47 63 117 95t147 32q82 0 141.5 -39t98.5 -99.5 t58.5 -134t19.5 -143.5t-20.5 -159t-62.5 -168t-104.5 -133t-146.5 -54q-74 0 -135.5 28.5t-112.5 75.5z" />
<glyph unicode="&#x441;" horiz-adv-x="946" d="M82 504q0 -102 31.5 -198.5t93 -170.5t148.5 -119t198 -45q96 0 172.5 37t148.5 94l-34 72q-70 -47 -135.5 -68.5t-151.5 -21.5q-80 0 -143.5 39t-106.5 99.5t-65.5 135t-22.5 146.5q0 82 14.5 172t52 164.5t103.5 123t168 48.5q158 0 287 -97l30 74q-72 66 -145.5 97.5 t-171.5 31.5q-127 0 -216 -55t-146.5 -142t-83 -197t-25.5 -220z" />
<glyph unicode="&#x442;" horiz-adv-x="907" d="M31 981h356v-981h133v981h357v109h-846v-109z" />
<glyph unicode="&#x443;" horiz-adv-x="1007" d="M-84 -414q51 -35 114.5 -62.5t125.5 -27.5q78 0 135 33t100 85t73 116.5t54 128.5l459 1231h-129l-334 -900l-338 900h-143l409 -1090l-47 -135q-14 -41 -33.5 -87t-47 -85t-65.5 -63.5t-89 -24.5q-111 0 -211 51z" />
<glyph unicode="&#x444;" horiz-adv-x="1341" d="M82 559q0 -113 38 -214t106.5 -178t164.5 -122t213 -45v-481h133v481q117 0 213.5 45t165 122t106.5 178t38 214t-38 214t-106.5 178t-165 122t-213.5 45v393h-133v-393q-117 0 -213 -45t-164.5 -122t-106.5 -178t-38 -214zM215 559q0 82 27.5 163t78 144.5t122 103.5 t161.5 40v-901q-90 0 -161.5 38.5t-123 103t-78 144.5t-26.5 164zM737 109v901q88 0 161 -40t123 -103.5t77.5 -144.5t27.5 -163q0 -84 -26.5 -164t-77.5 -144.5t-123 -103t-162 -38.5z" />
<glyph unicode="&#x445;" horiz-adv-x="892" d="M51 0h127l258 424l246 -424h160l-324 559l324 531h-127l-258 -424l-246 424h-160l324 -560z" />
<glyph unicode="&#x446;" horiz-adv-x="1007" d="M102 0h740l49 -352h86v461h-139v981h-133v-981h-469v981h-134v-1090z" />
<glyph unicode="&#x447;" horiz-adv-x="839" d="M51 543q53 -74 110.5 -114t151.5 -40q78 0 152 18.5t139 61.5v-469h133v1090h-133v-523q-55 -35 -106.5 -51t-116.5 -16q-35 0 -70 8t-63.5 26.5t-46 47t-17.5 69.5v439h-133v-547z" />
<glyph unicode="&#x448;" horiz-adv-x="1351" d="M102 0h1147v1090h-135v-981h-373v981h-133v-981h-372v981h-134v-1090z" />
<glyph unicode="&#x449;" horiz-adv-x="1415" d="M102 0h1147l49 -352h86v461h-135v981h-135v-981h-373v981h-133v-981h-372v981h-134v-1090z" />
<glyph unicode="&#x44a;" horiz-adv-x="1093" d="M10 981h312v-981h311q74 0 143.5 23.5t124.5 68.5t88 107.5t33 142.5q0 86 -30.5 149.5t-84 106.5t-123 64.5t-149.5 21.5h-180v406h-445v-109zM455 109v464h178q53 0 100 -14t82 -44t54.5 -73t19.5 -100q0 -55 -20.5 -98t-56.5 -73t-82 -46t-97 -16h-178z" />
<glyph unicode="&#x44b;" horiz-adv-x="1181" d="M102 0h312q74 0 143.5 23.5t124.5 68.5t88 107.5t33 142.5q0 86 -31 149.5t-84 106.5t-122.5 64.5t-149.5 21.5h-180v406h-134v-1090zM236 109v464h178q53 0 100 -14t82 -44t54.5 -73t19.5 -100q0 -55 -20.5 -98t-56.5 -73t-82 -46t-97 -16h-178zM946 0h133v1090h-133 v-1090z" />
<glyph unicode="&#x44c;" horiz-adv-x="874" d="M102 0h312q74 0 143.5 23.5t124.5 68.5t88 107.5t33 142.5q0 86 -31 149.5t-84 106.5t-122.5 64.5t-149.5 21.5h-180v406h-134v-1090zM236 109v464h178q53 0 100 -14t82 -44t54.5 -73t19.5 -100q0 -55 -20.5 -98t-56.5 -73t-82 -46t-97 -16h-178z" />
<glyph unicode="&#x44d;" horiz-adv-x="919" d="M51 102q72 -57 148.5 -95t173.5 -38q111 0 197.5 49.5t145 128t89.5 178t31 199.5q0 106 -26 213t-82 192t-144 137t-211 52q-98 0 -172 -31.5t-146 -97.5l31 -74q66 49 135.5 72t151.5 23q74 0 130 -36t96 -92.5t63.5 -126t33.5 -137.5h-442v-83l448 -39 q-4 -72 -25.5 -143.5t-62.5 -131t-101 -96.5t-140 -37q-86 0 -151.5 19.5t-135.5 66.5z" />
<glyph unicode="&#x44e;" horiz-adv-x="1421" d="M102 0h134v492h176q8 -100 33.5 -194.5t77.5 -167.5t135 -117t206 -44t211 49.5t144.5 129t83 183t26.5 214.5t-26.5 214t-83 183t-144.5 128t-211 48q-109 0 -193.5 -43t-142 -114.5t-87 -166t-29.5 -194.5h-176v490h-134v-1090zM543 545q0 78 14 159.5t51 149.5 t98.5 112t157.5 44q94 0 157.5 -43t102.5 -111t55.5 -149.5t16.5 -161.5t-16.5 -163t-54.5 -150.5t-102.5 -110.5t-158.5 -43q-96 0 -158.5 44t-98.5 111.5t-50 150.5t-14 161z" />
<glyph unicode="&#x44f;" horiz-adv-x="878" d="M72 0h145l225 418h201v-418h133v1090h-350q-76 0 -140.5 -24t-110.5 -68t-71.5 -106.5t-25.5 -139.5q0 -123 61.5 -205t165.5 -113zM211 752q0 45 16.5 86t45 72.5t67.5 51t86 19.5h217v-455h-217q-47 0 -86 18.5t-67.5 49.5t-45 72t-16.5 86z" />
<glyph unicode="&#x451;" horiz-adv-x="927" d="M82 522q0 -102 20.5 -200.5t68.5 -176t128 -126t199 -48.5q51 0 96 12.5t86 32t82 44t82 49.5l-31 75q-72 -43 -150.5 -72.5t-164.5 -29.5q-100 0 -156.5 48t-84.5 121t-35 159t-7 161l631 50q0 86 -13.5 174t-50.5 160.5t-103.5 117.5t-172.5 45q-121 0 -202 -55 t-130 -142t-70.5 -192.5t-21.5 -206.5zM178 1411q0 -41 30 -70.5t71 -29.5t70.5 29.5t29.5 70.5t-30 70.5t-70 29.5q-41 0 -71 -29.5t-30 -70.5zM227 694q6 55 26.5 111.5t54.5 101.5t82 74t112 29q57 0 97 -23.5t65.5 -61.5t38 -87.5t12.5 -98.5v-22t-2 -23h-486zM588 1411 q0 -41 29.5 -70.5t70.5 -29.5t70.5 29.5t29.5 70.5t-29.5 70.5t-70.5 29.5t-70.5 -29.5t-29.5 -70.5z" />
<glyph unicode="&#x2000;" horiz-adv-x="939" />
<glyph unicode="&#x2001;" horiz-adv-x="1878" />
<glyph unicode="&#x2002;" horiz-adv-x="939" />
<glyph unicode="&#x2003;" horiz-adv-x="1878" />
<glyph unicode="&#x2004;" horiz-adv-x="626" />
<glyph unicode="&#x2005;" horiz-adv-x="469" />
<glyph unicode="&#x2006;" horiz-adv-x="313" />
<glyph unicode="&#x2007;" horiz-adv-x="313" />
<glyph unicode="&#x2008;" horiz-adv-x="234" />
<glyph unicode="&#x2009;" horiz-adv-x="375" />
<glyph unicode="&#x200a;" horiz-adv-x="104" />
<glyph unicode="&#x2010;" horiz-adv-x="794" d="M82 580l631 30v92h-631v-122z" />
<glyph unicode="&#x2011;" horiz-adv-x="794" d="M82 580l631 30v92h-631v-122z" />
<glyph unicode="&#x2012;" horiz-adv-x="794" d="M82 580l631 30v92h-631v-122z" />
<glyph unicode="&#x2013;" horiz-adv-x="1187" d="M82 580l1024 30v92h-1024v-122z" />
<glyph unicode="&#x2014;" horiz-adv-x="2211" d="M82 580l2048 30v92h-2048v-122z" />
<glyph unicode="&#x202f;" horiz-adv-x="375" />
<glyph unicode="&#x205f;" horiz-adv-x="469" />
<glyph unicode="&#x25fc;" horiz-adv-x="1085" d="M0 0v1085h1085v-1085h-1085z" />
</font>
</defs>
</svg>
